<svg xmlns="http://www.w3.org/2000/svg" viewBox="0 0 17280 900" width="17280" height="900">
<rect width="100%" height="100%" fill="#FAFAFA"/>
<rect x="30" y="30" width="1380" height="840" rx="12" fill="#FFFFFF" stroke="#B71C1C" stroke-width="2"/>
<rect x="50" y="110" width="40" height="740" rx="8" fill="#FCE8E6" stroke="#B71C1C" stroke-width="1"/>
<text x="50" y="80" fill="#8B0000" font-size="26" font-family="Arial" font-weight="700">1. SPLASH</text>
<rect x="110" y="110" width="1240" height="720" rx="10" fill="#FFF5F5" stroke="#E0E0E0"/>
<text x="130" y="150" fill="#B71C1C" font-size="22" font-family="Arial" font-weight="700">SPLASH</text>
<rect x="130" y="190" width="420" height="48" rx="10" fill="#FFF0F0" stroke="#B71C1C" stroke-width="1"/>
<text x="150" y="220" fill="#8B0000" font-size="14" font-family="Arial" font-weight="600">LOGO / MARCA</text>
<rect x="130" y="260" width="420" height="48" rx="10" fill="#FFF0F0" stroke="#B71C1C" stroke-width="1"/>
<text x="150" y="290" fill="#8B0000" font-size="14" font-family="Arial" font-weight="600">TEXTO: SISTEMA DE CONTROL</text>
<rect x="130" y="330" width="420" height="48" rx="10" fill="#FFF0F0" stroke="#B71C1C" stroke-width="1"/>
<text x="150" y="360" fill="#8B0000" font-size="14" font-family="Arial" font-weight="600">SUBTEXTO: CARGANDO...</text>
<text x="1320" y="860" fill="#8B0000" font-size="12" font-family="Arial" font-weight="600" text-anchor="end">PANTALLA 1/12</text>
<rect x="1470" y="30" width="1380" height="840" rx="12" fill="#FFFFFF" stroke="#B71C1C" stroke-width="2"/>
<rect x="1490" y="110" width="40" height="740" rx="8" fill="#FCE8E6" stroke="#B71C1C" stroke-width="1"/>
<text x="1490" y="80" fill="#8B0000" font-size="26" font-family="Arial" font-weight="700">2. LOGIN</text>
<rect x="1550" y="110" width="1240" height="720" rx="10" fill="#FFF5F5" stroke="#E0E0E0"/>
<text x="1570" y="150" fill="#B71C1C" font-size="22" font-family="Arial" font-weight="700">LOGIN</text>
<text x="1570" y="182" fill="#8B0000" font-size="12" font-family="Arial" font-weight="600">CAMPO DE TEXTO: USUARIO</text>
<rect x="1570" y="190" width="520" height="40" rx="8" fill="#FFFFFF" stroke="#B71C1C" stroke-width="1"/>
<text x="1570" y="248" fill="#8B0000" font-size="12" font-family="Arial" font-weight="600">CAMPO DE TEXTO: CONTRASEÑA</text>
<rect x="1570" y="256" width="520" height="40" rx="8" fill="#FFFFFF" stroke="#B71C1C" stroke-width="1"/>
<rect x="1570" y="322" width="320" height="48" rx="10" fill="#FCE8E6" stroke="#B71C1C" stroke-width="1"/>
<text x="1730" y="354" fill="#8B0000" font-size="14" font-family="Arial" font-weight="600" text-anchor="middle">BOTÓN: INICIAR SESIÓN</text>
<text x="2760" y="860" fill="#8B0000" font-size="12" font-family="Arial" font-weight="600" text-anchor="end">PANTALLA 2/12</text>
<rect x="2910" y="30" width="1380" height="840" rx="12" fill="#FFFFFF" stroke="#B71C1C" stroke-width="2"/>
<rect x="2930" y="110" width="40" height="740" rx="8" fill="#FCE8E6" stroke="#B71C1C" stroke-width="1"/>
<text x="2930" y="80" fill="#8B0000" font-size="26" font-family="Arial" font-weight="700">3. VALIDACIÓN DE ROL</text>
<rect x="2990" y="110" width="1240" height="720" rx="10" fill="#FFF5F5" stroke="#E0E0E0"/>
<text x="3010" y="150" fill="#B71C1C" font-size="22" font-family="Arial" font-weight="700">VALIDACIÓN DE ROL</text>
<rect x="3010" y="190" width="420" height="48" rx="10" fill="#FFF0F0" stroke="#B71C1C" stroke-width="1"/>
<text x="3030" y="220" fill="#8B0000" font-size="14" font-family="Arial" font-weight="600">TEXTO: VALIDANDO CREDENCIALES</text>
<rect x="3010" y="260" width="420" height="48" rx="10" fill="#FFF0F0" stroke="#B71C1C" stroke-width="1"/>
<text x="3030" y="290" fill="#8B0000" font-size="14" font-family="Arial" font-weight="600">ANIMACIÓN: SPINNER / BARRA DE CARGA</text>
<rect x="3010" y="330" width="420" height="48" rx="10" fill="#FFF0F0" stroke="#B71C1C" stroke-width="1"/>
<text x="3030" y="360" fill="#8B0000" font-size="14" font-family="Arial" font-weight="600">MENSAJE: BIENVENIDO (ROL DETECTADO)</text>
<text x="4200" y="860" fill="#8B0000" font-size="12" font-family="Arial" font-weight="600" text-anchor="end">PANTALLA 3/12</text>
<rect x="4350" y="30" width="1380" height="840" rx="12" fill="#FFFFFF" stroke="#B71C1C" stroke-width="2"/>
<rect x="4370" y="110" width="40" height="740" rx="8" fill="#FCE8E6" stroke="#B71C1C" stroke-width="1"/>
<text x="4370" y="80" fill="#8B0000" font-size="26" font-family="Arial" font-weight="700">4. DASHBOARD</text>
<rect x="4430" y="110" width="1240" height="720" rx="10" fill="#FFF5F5" stroke="#E0E0E0"/>
<text x="4450" y="150" fill="#B71C1C" font-size="22" font-family="Arial" font-weight="700">DASHBOARD</text>
<rect x="4450" y="190" width="420" height="48" rx="10" fill="#FFF0F0" stroke="#B71C1C" stroke-width="1"/>
<text x="4470" y="220" fill="#8B0000" font-size="14" font-family="Arial" font-weight="600">TARJETA: INVENTARIO TOTAL</text>
<rect x="4450" y="260" width="420" height="48" rx="10" fill="#FFF0F0" stroke="#B71C1C" stroke-width="1"/>
<text x="4470" y="290" fill="#8B0000" font-size="14" font-family="Arial" font-weight="600">TARJETA: ENTRADAS / SALIDAS</text>
<rect x="4450" y="330" width="1180" height="180" rx="8" fill="#FFF0F0" stroke="#D9D9D9"/>
<text x="4470" y="350" fill="#B71C1C" font-size="14" font-family="Arial" font-weight="600">GRÁFICO: MOVIMIENTOS</text>
<rect x="4450" y="540" width="320" height="48" rx="10" fill="#FCE8E6" stroke="#B71C1C" stroke-width="1"/>
<text x="4610" y="572" fill="#8B0000" font-size="14" font-family="Arial" font-weight="600" text-anchor="middle">BOTÓN: VER INVENTARIO</text>
<text x="5640" y="860" fill="#8B0000" font-size="12" font-family="Arial" font-weight="600" text-anchor="end">PANTALLA 4/12</text>
<rect x="5790" y="30" width="1380" height="840" rx="12" fill="#FFFFFF" stroke="#B71C1C" stroke-width="2"/>
<rect x="5810" y="110" width="40" height="740" rx="8" fill="#FCE8E6" stroke="#B71C1C" stroke-width="1"/>
<text x="5810" y="80" fill="#8B0000" font-size="26" font-family="Arial" font-weight="700">5. REGISTRAR ENTRADA</text>
<rect x="5870" y="110" width="1240" height="720" rx="10" fill="#FFF5F5" stroke="#E0E0E0"/>
<text x="5890" y="150" fill="#B71C1C" font-size="22" font-family="Arial" font-weight="700">REGISTRAR ENTRADA</text>
<text x="5890" y="182" fill="#8B0000" font-size="12" font-family="Arial" font-weight="600">CAMPO: SABOR</text>
<rect x="5890" y="190" width="520" height="40" rx="8" fill="#FFFFFF" stroke="#B71C1C" stroke-width="1"/>
<text x="5890" y="248" fill="#8B0000" font-size="12" font-family="Arial" font-weight="600">CAMPO: CANTIDAD (CAJAS)</text>
<rect x="5890" y="256" width="520" height="40" rx="8" fill="#FFFFFF" stroke="#B71C1C" stroke-width="1"/>
<text x="5890" y="314" fill="#8B0000" font-size="12" font-family="Arial" font-weight="600">CAMPO: OBSERVACIONES</text>
<rect x="5890" y="322" width="520" height="40" rx="8" fill="#FFFFFF" stroke="#B71C1C" stroke-width="1"/>
<rect x="5890" y="388" width="320" height="48" rx="10" fill="#FCE8E6" stroke="#B71C1C" stroke-width="1"/>
<text x="6050" y="420" fill="#8B0000" font-size="14" font-family="Arial" font-weight="600" text-anchor="middle">BOTÓN: GUARDAR</text>
<text x="7080" y="860" fill="#8B0000" font-size="12" font-family="Arial" font-weight="600" text-anchor="end">PANTALLA 5/12</text>
<rect x="7230" y="30" width="1380" height="840" rx="12" fill="#FFFFFF" stroke="#B71C1C" stroke-width="2"/>
<rect x="7250" y="110" width="40" height="740" rx="8" fill="#FCE8E6" stroke="#B71C1C" stroke-width="1"/>
<text x="7250" y="80" fill="#8B0000" font-size="26" font-family="Arial" font-weight="700">6. REGISTRAR SALIDA</text>
<rect x="7310" y="110" width="1240" height="720" rx="10" fill="#FFF5F5" stroke="#E0E0E0"/>
<text x="7330" y="150" fill="#B71C1C" font-size="22" font-family="Arial" font-weight="700">REGISTRAR SALIDA</text>
<text x="7330" y="182" fill="#8B0000" font-size="12" font-family="Arial" font-weight="600">CAMPO: SABOR</text>
<rect x="7330" y="190" width="520" height="40" rx="8" fill="#FFFFFF" stroke="#B71C1C" stroke-width="1"/>
<text x="7330" y="248" fill="#8B0000" font-size="12" font-family="Arial" font-weight="600">CAMPO: CANTIDAD (CAJAS)</text>
<rect x="7330" y="256" width="520" height="40" rx="8" fill="#FFFFFF" stroke="#B71C1C" stroke-width="1"/>
<text x="7330" y="314" fill="#8B0000" font-size="12" font-family="Arial" font-weight="600">CAMPO: OBSERVACIONES</text>
<rect x="7330" y="322" width="520" height="40" rx="8" fill="#FFFFFF" stroke="#B71C1C" stroke-width="1"/>
<rect x="7330" y="388" width="320" height="48" rx="10" fill="#FCE8E6" stroke="#B71C1C" stroke-width="1"/>
<text x="7490" y="420" fill="#8B0000" font-size="14" font-family="Arial" font-weight="600" text-anchor="middle">BOTÓN: GUARDAR</text>
<text x="8520" y="860" fill="#8B0000" font-size="12" font-family="Arial" font-weight="600" text-anchor="end">PANTALLA 6/12</text>
<rect x="8670" y="30" width="1380" height="840" rx="12" fill="#FFFFFF" stroke="#B71C1C" stroke-width="2"/>
<rect x="8690" y="110" width="40" height="740" rx="8" fill="#FCE8E6" stroke="#B71C1C" stroke-width="1"/>
<text x="8690" y="80" fill="#8B0000" font-size="26" font-family="Arial" font-weight="700">7. HISTORIAL DE MOVIMIENTOS</text>
<rect x="8750" y="110" width="1240" height="720" rx="10" fill="#FFF5F5" stroke="#E0E0E0"/>
<text x="8770" y="150" fill="#B71C1C" font-size="22" font-family="Arial" font-weight="700">HISTORIAL DE MOVIMIENTOS</text>
<text x="8770" y="182" fill="#8B0000" font-size="12" font-family="Arial" font-weight="600">FILTRO: FECHA / SABOR</text>
<rect x="8770" y="190" width="520" height="40" rx="8" fill="#FFFFFF" stroke="#B71C1C" stroke-width="1"/>
<rect x="8770" y="256" width="1180" height="280" rx="8" fill="#FFFFFF" stroke="#E0E0E0"/>
<rect x="8770" y="256" width="1180" height="40" rx="8" fill="#FCE8E6" stroke="#B71C1C"/>
<text x="8790" y="282" fill="#8B0000" font-size="14" font-family="Arial" font-weight="600">TABLA: MOVIMIENTOS (ENCABEZADOS)</text>
<rect x="8770" y="556" width="420" height="48" rx="10" fill="#FFF0F0" stroke="#B71C1C" stroke-width="1"/>
<text x="8790" y="586" fill="#8B0000" font-size="14" font-family="Arial" font-weight="600">PAGINACIÓN</text>
<text x="9960" y="860" fill="#8B0000" font-size="12" font-family="Arial" font-weight="600" text-anchor="end">PANTALLA 7/12</text>
<rect x="10110" y="30" width="1380" height="840" rx="12" fill="#FFFFFF" stroke="#B71C1C" stroke-width="2"/>
<rect x="10130" y="110" width="40" height="740" rx="8" fill="#FCE8E6" stroke="#B71C1C" stroke-width="1"/>
<text x="10130" y="80" fill="#8B0000" font-size="26" font-family="Arial" font-weight="700">8. INVENTARIO ACTUAL</text>
<rect x="10190" y="110" width="1240" height="720" rx="10" fill="#FFF5F5" stroke="#E0E0E0"/>
<text x="10210" y="150" fill="#B71C1C" font-size="22" font-family="Arial" font-weight="700">INVENTARIO ACTUAL</text>
<text x="10210" y="182" fill="#8B0000" font-size="12" font-family="Arial" font-weight="600">BUSCADOR</text>
<rect x="10210" y="190" width="520" height="40" rx="8" fill="#FFFFFF" stroke="#B71C1C" stroke-width="1"/>
<rect x="10210" y="256" width="1180" height="280" rx="8" fill="#FFFFFF" stroke="#E0E0E0"/>
<rect x="10210" y="256" width="1180" height="40" rx="8" fill="#FCE8E6" stroke="#B71C1C"/>
<text x="10230" y="282" fill="#8B0000" font-size="14" font-family="Arial" font-weight="600">TABLA: SABOR / CAJAS / ÚLTIMA ACTUALIZACIÓN (ENCABEZADOS)</text>
<text x="11400" y="860" fill="#8B0000" font-size="12" font-family="Arial" font-weight="600" text-anchor="end">PANTALLA 8/12</text>
<rect x="11550" y="30" width="1380" height="840" rx="12" fill="#FFFFFF" stroke="#B71C1C" stroke-width="2"/>
<rect x="11570" y="110" width="40" height="740" rx="8" fill="#FCE8E6" stroke="#B71C1C" stroke-width="1"/>
<text x="11570" y="80" fill="#8B0000" font-size="26" font-family="Arial" font-weight="700">9. INVENTARIO HISTÓRICO</text>
<rect x="11630" y="110" width="1240" height="720" rx="10" fill="#FFF5F5" stroke="#E0E0E0"/>
<text x="11650" y="150" fill="#B71C1C" font-size="22" font-family="Arial" font-weight="700">INVENTARIO HISTÓRICO</text>
<text x="11650" y="182" fill="#8B0000" font-size="12" font-family="Arial" font-weight="600">FILTRO: RANGO DE FECHA</text>
<rect x="11650" y="190" width="520" height="40" rx="8" fill="#FFFFFF" stroke="#B71C1C" stroke-width="1"/>
<rect x="11650" y="256" width="1180" height="180" rx="8" fill="#FFF0F0" stroke="#D9D9D9"/>
<text x="11670" y="276" fill="#B71C1C" font-size="14" font-family="Arial" font-weight="600">GRÁFICO: EXISTENCIAS</text>
<rect x="11650" y="466" width="1180" height="280" rx="8" fill="#FFFFFF" stroke="#E0E0E0"/>
<rect x="11650" y="466" width="1180" height="40" rx="8" fill="#FCE8E6" stroke="#B71C1C"/>
<text x="11670" y="492" fill="#8B0000" font-size="14" font-family="Arial" font-weight="600">TABLA: REGISTROS (ENCABEZADOS)</text>
<text x="12840" y="860" fill="#8B0000" font-size="12" font-family="Arial" font-weight="600" text-anchor="end">PANTALLA 9/12</text>
<rect x="12990" y="30" width="1380" height="840" rx="12" fill="#FFFFFF" stroke="#B71C1C" stroke-width="2"/>
<rect x="13010" y="110" width="40" height="740" rx="8" fill="#FCE8E6" stroke="#B71C1C" stroke-width="1"/>
<text x="13010" y="80" fill="#8B0000" font-size="26" font-family="Arial" font-weight="700">10. REPORTES / SAP</text>
<rect x="13070" y="110" width="1240" height="720" rx="10" fill="#FFF5F5" stroke="#E0E0E0"/>
<text x="13090" y="150" fill="#B71C1C" font-size="22" font-family="Arial" font-weight="700">REPORTES / SAP</text>
<rect x="13090" y="190" width="320" height="48" rx="10" fill="#FCE8E6" stroke="#B71C1C" stroke-width="1"/>
<text x="13250" y="222" fill="#8B0000" font-size="14" font-family="Arial" font-weight="600" text-anchor="middle">BOTÓN: EXPORTAR</text>
<rect x="13090" y="260" width="320" height="48" rx="10" fill="#FCE8E6" stroke="#B71C1C" stroke-width="1"/>
<text x="13250" y="292" fill="#8B0000" font-size="14" font-family="Arial" font-weight="600" text-anchor="middle">BOTÓN: SINCRONIZAR</text>
<rect x="13090" y="330" width="420" height="48" rx="10" fill="#FFF0F0" stroke="#B71C1C" stroke-width="1"/>
<text x="13110" y="360" fill="#8B0000" font-size="14" font-family="Arial" font-weight="600">LOG: ESTADO DE SINCRONIZACIÓN</text>
<text x="14280" y="860" fill="#8B0000" font-size="12" font-family="Arial" font-weight="600" text-anchor="end">PANTALLA 10/12</text>
<rect x="14430" y="30" width="1380" height="840" rx="12" fill="#FFFFFF" stroke="#B71C1C" stroke-width="2"/>
<rect x="14450" y="110" width="40" height="740" rx="8" fill="#FCE8E6" stroke="#B71C1C" stroke-width="1"/>
<text x="14450" y="80" fill="#8B0000" font-size="26" font-family="Arial" font-weight="700">11. ADMINISTRACIÓN DE USUARIOS</text>
<rect x="14510" y="110" width="1240" height="720" rx="10" fill="#FFF5F5" stroke="#E0E0E0"/>
<text x="14530" y="150" fill="#B71C1C" font-size="22" font-family="Arial" font-weight="700">ADMINISTRACIÓN DE USUARIOS</text>
<rect x="14530" y="190" width="420" height="48" rx="10" fill="#FFF0F0" stroke="#B71C1C" stroke-width="1"/>
<text x="14550" y="220" fill="#8B0000" font-size="14" font-family="Arial" font-weight="600">LISTA: USUARIOS</text>
<rect x="14530" y="260" width="320" height="48" rx="10" fill="#FCE8E6" stroke="#B71C1C" stroke-width="1"/>
<text x="14690" y="292" fill="#8B0000" font-size="14" font-family="Arial" font-weight="600" text-anchor="middle">BOTÓN: NUEVO</text>
<rect x="14530" y="330" width="320" height="48" rx="10" fill="#FCE8E6" stroke="#B71C1C" stroke-width="1"/>
<text x="14690" y="362" fill="#8B0000" font-size="14" font-family="Arial" font-weight="600" text-anchor="middle">BOTÓN: EDITAR</text>
<rect x="14530" y="400" width="1180" height="280" rx="8" fill="#FFFFFF" stroke="#E0E0E0"/>
<rect x="14530" y="400" width="1180" height="40" rx="8" fill="#FCE8E6" stroke="#B71C1C"/>
<text x="14550" y="426" fill="#8B0000" font-size="14" font-family="Arial" font-weight="600">TABLA: ROLES / ESTADO (ENCABEZADOS)</text>
<text x="15720" y="860" fill="#8B0000" font-size="12" font-family="Arial" font-weight="600" text-anchor="end">PANTALLA 11/12</text>
<rect x="15870" y="30" width="1380" height="840" rx="12" fill="#FFFFFF" stroke="#B71C1C" stroke-width="2"/>
<rect x="15890" y="110" width="40" height="740" rx="8" fill="#FCE8E6" stroke="#B71C1C" stroke-width="1"/>
<text x="15890" y="80" fill="#8B0000" font-size="26" font-family="Arial" font-weight="700">12. CENTRO DE AYUDA</text>
<rect x="15950" y="110" width="1240" height="720" rx="10" fill="#FFF5F5" stroke="#E0E0E0"/>
<text x="15970" y="150" fill="#B71C1C" font-size="22" font-family="Arial" font-weight="700">CENTRO DE AYUDA</text>
<rect x="15970" y="190" width="420" height="48" rx="10" fill="#FFF0F0" stroke="#B71C1C" stroke-width="1"/>
<text x="15990" y="220" fill="#8B0000" font-size="14" font-family="Arial" font-weight="600">PREGUNTAS FRECUENTES</text>
<rect x="15970" y="260" width="420" height="48" rx="10" fill="#FFF0F0" stroke="#B71C1C" stroke-width="1"/>
<text x="15990" y="290" fill="#8B0000" font-size="14" font-family="Arial" font-weight="600">TUTORIAL VISUAL</text>
<rect x="15970" y="330" width="420" height="48" rx="10" fill="#FFF0F0" stroke="#B71C1C" stroke-width="1"/>
<text x="15990" y="360" fill="#8B0000" font-size="14" font-family="Arial" font-weight="600">CONTACTO TÉCNICO</text>
<text x="17160" y="860" fill="#8B0000" font-size="12" font-family="Arial" font-weight="600" text-anchor="end">PANTALLA 12/12</text>
<line x1="1440" y1="0" x2="1440" y2="900" stroke="#E0E0E0" stroke-width="1" stroke-dasharray="6,6"/>
<line x1="1400" y1="450.0" x2="1430" y2="450.0" stroke="#B71C1C" stroke-width="2"/><polygon points="1430,450.0 1420,444.0 1420,456.0" fill="#B71C1C"/>
<line x1="2880" y1="0" x2="2880" y2="900" stroke="#E0E0E0" stroke-width="1" stroke-dasharray="6,6"/>
<line x1="2840" y1="450.0" x2="2870" y2="450.0" stroke="#B71C1C" stroke-width="2"/><polygon points="2870,450.0 2860,444.0 2860,456.0" fill="#B71C1C"/>
<line x1="4320" y1="0" x2="4320" y2="900" stroke="#E0E0E0" stroke-width="1" stroke-dasharray="6,6"/>
<line x1="4280" y1="450.0" x2="4310" y2="450.0" stroke="#B71C1C" stroke-width="2"/><polygon points="4310,450.0 4300,444.0 4300,456.0" fill="#B71C1C"/>
<line x1="5760" y1="0" x2="5760" y2="900" stroke="#E0E0E0" stroke-width="1" stroke-dasharray="6,6"/>
<line x1="5720" y1="450.0" x2="5750" y2="450.0" stroke="#B71C1C" stroke-width="2"/><polygon points="5750,450.0 5740,444.0 5740,456.0" fill="#B71C1C"/>
<line x1="7200" y1="0" x2="7200" y2="900" stroke="#E0E0E0" stroke-width="1" stroke-dasharray="6,6"/>
<line x1="7160" y1="450.0" x2="7190" y2="450.0" stroke="#B71C1C" stroke-width="2"/><polygon points="7190,450.0 7180,444.0 7180,456.0" fill="#B71C1C"/>
<line x1="8640" y1="0" x2="8640" y2="900" stroke="#E0E0E0" stroke-width="1" stroke-dasharray="6,6"/>
<line x1="8600" y1="450.0" x2="8630" y2="450.0" stroke="#B71C1C" stroke-width="2"/><polygon points="8630,450.0 8620,444.0 8620,456.0" fill="#B71C1C"/>
<line x1="10080" y1="0" x2="10080" y2="900" stroke="#E0E0E0" stroke-width="1" stroke-dasharray="6,6"/>
<line x1="10040" y1="450.0" x2="10070" y2="450.0" stroke="#B71C1C" stroke-width="2"/><polygon points="10070,450.0 10060,444.0 10060,456.0" fill="#B71C1C"/>
<line x1="11520" y1="0" x2="11520" y2="900" stroke="#E0E0E0" stroke-width="1" stroke-dasharray="6,6"/>
<line x1="11480" y1="450.0" x2="11510" y2="450.0" stroke="#B71C1C" stroke-width="2"/><polygon points="11510,450.0 11500,444.0 11500,456.0" fill="#B71C1C"/>
<line x1="12960" y1="0" x2="12960" y2="900" stroke="#E0E0E0" stroke-width="1" stroke-dasharray="6,6"/>
<line x1="12920" y1="450.0" x2="12950" y2="450.0" stroke="#B71C1C" stroke-width="2"/><polygon points="12950,450.0 12940,444.0 12940,456.0" fill="#B71C1C"/>
<line x1="14400" y1="0" x2="14400" y2="900" stroke="#E0E0E0" stroke-width="1" stroke-dasharray="6,6"/>
<line x1="14360" y1="450.0" x2="14390" y2="450.0" stroke="#B71C1C" stroke-width="2"/><polygon points="14390,450.0 14380,444.0 14380,456.0" fill="#B71C1C"/>
<line x1="15840" y1="0" x2="15840" y2="900" stroke="#E0E0E0" stroke-width="1" stroke-dasharray="6,6"/>
<line x1="15800" y1="450.0" x2="15830" y2="450.0" stroke="#B71C1C" stroke-width="2"/><polygon points="15830,450.0 15820,444.0 15820,456.0" fill="#B71C1C"/>
</svg>