<svg xmlns="http://www.w3.org/2000/svg" viewBox="0 0 17280 900" width="17280" height="900">
<rect width="100%" height="100%" fill="#FFFFFF"/>
<rect x="30" y="30" width="1380" height="840" rx="8" fill="#FAFAFA" stroke="#999" stroke-width="1"/>
<text x="50" y="80" fill="#333" font-family="Arial, Helvetica, sans-serif" font-size="26" font-weight="700" text-anchor="start">1. SPLASH</text>
<rect x="50" y="110" width="40" height="740" rx="8" fill="#EEEEEE" stroke="#DDD" stroke-width="1"/>
<rect x="58" y="140" width="24" height="8" rx="4" fill="#DADADA" stroke="#CFCFCF" stroke-width="1"/>
<rect x="58" y="250" width="24" height="8" rx="4" fill="#DADADA" stroke="#CFCFCF" stroke-width="1"/>
<rect x="58" y="360" width="24" height="8" rx="4" fill="#DADADA" stroke="#CFCFCF" stroke-width="1"/>
<rect x="58" y="470" width="24" height="8" rx="4" fill="#DADADA" stroke="#CFCFCF" stroke-width="1"/>
<rect x="58" y="580" width="24" height="8" rx="4" fill="#DADADA" stroke="#CFCFCF" stroke-width="1"/>
<rect x="58" y="690" width="24" height="8" rx="4" fill="#DADADA" stroke="#CFCFCF" stroke-width="1"/>
<rect x="110" y="110" width="1240" height="720" rx="8" fill="#FFFFFF" stroke="#DDD" stroke-width="1"/>
<text x="130" y="150" fill="#333" font-family="Arial, Helvetica, sans-serif" font-size="22" font-weight="700" text-anchor="start">SPLASH</text>
<rect x="130" y="190" width="420" height="48" rx="10" fill="#EFEFEF" stroke="#CFCFCF" stroke-width="1"/>
<text x="150" y="220" fill="#333" font-family="Arial, Helvetica, sans-serif" font-size="14" font-weight="600" text-anchor="start">LOGO / MARCA</text>
<rect x="130" y="260" width="420" height="48" rx="10" fill="#EFEFEF" stroke="#CFCFCF" stroke-width="1"/>
<text x="150" y="290" fill="#333" font-family="Arial, Helvetica, sans-serif" font-size="14" font-weight="600" text-anchor="start">TEXTO: SISTEMA DE CONTROL</text>
<rect x="130" y="330" width="420" height="48" rx="10" fill="#EFEFEF" stroke="#CFCFCF" stroke-width="1"/>
<text x="150" y="360" fill="#333" font-family="Arial, Helvetica, sans-serif" font-size="14" font-weight="600" text-anchor="start">SUBTEXTO: CARGANDO...</text>
<text x="1320" y="860" fill="#777" font-family="Arial, Helvetica, sans-serif" font-size="12" font-weight="600" text-anchor="end">PANTALLA 1/12</text>
<rect x="1470" y="30" width="1380" height="840" rx="8" fill="#FAFAFA" stroke="#999" stroke-width="1"/>
<text x="1490" y="80" fill="#333" font-family="Arial, Helvetica, sans-serif" font-size="26" font-weight="700" text-anchor="start">2. LOGIN</text>
<rect x="1490" y="110" width="40" height="740" rx="8" fill="#EEEEEE" stroke="#DDD" stroke-width="1"/>
<rect x="1498" y="140" width="24" height="8" rx="4" fill="#DADADA" stroke="#CFCFCF" stroke-width="1"/>
<rect x="1498" y="250" width="24" height="8" rx="4" fill="#DADADA" stroke="#CFCFCF" stroke-width="1"/>
<rect x="1498" y="360" width="24" height="8" rx="4" fill="#DADADA" stroke="#CFCFCF" stroke-width="1"/>
<rect x="1498" y="470" width="24" height="8" rx="4" fill="#DADADA" stroke="#CFCFCF" stroke-width="1"/>
<rect x="1498" y="580" width="24" height="8" rx="4" fill="#DADADA" stroke="#CFCFCF" stroke-width="1"/>
<rect x="1498" y="690" width="24" height="8" rx="4" fill="#DADADA" stroke="#CFCFCF" stroke-width="1"/>
<rect x="1550" y="110" width="1240" height="720" rx="8" fill="#FFFFFF" stroke="#DDD" stroke-width="1"/>
<text x="1570" y="150" fill="#333" font-family="Arial, Helvetica, sans-serif" font-size="22" font-weight="700" text-anchor="start">LOGIN</text>
<text x="1570" y="182" fill="#666" font-family="Arial, Helvetica, sans-serif" font-size="12" font-weight="600" text-anchor="start">CAMPO DE TEXTO: USUARIO</text>
<rect x="1570" y="190" width="520" height="40" rx="8" fill="#FFFFFF" stroke="#CCCCCC" stroke-width="1"/>
<text x="1570" y="248" fill="#666" font-family="Arial, Helvetica, sans-serif" font-size="12" font-weight="600" text-anchor="start">CAMPO DE TEXTO: CONTRASEÑA</text>
<rect x="1570" y="256" width="520" height="40" rx="8" fill="#FFFFFF" stroke="#CCCCCC" stroke-width="1"/>
<rect x="1570" y="322" width="320" height="48" rx="10" fill="#EFEFEF" stroke="#CFCFCF" stroke-width="1"/>
<text x="1730" y="354" fill="#333" font-family="Arial, Helvetica, sans-serif" font-size="14" font-weight="600" text-anchor="middle">BOTÓN: INICIAR SESIÓN</text>
<text x="2760" y="860" fill="#777" font-family="Arial, Helvetica, sans-serif" font-size="12" font-weight="600" text-anchor="end">PANTALLA 2/12</text>
<rect x="2910" y="30" width="1380" height="840" rx="8" fill="#FAFAFA" stroke="#999" stroke-width="1"/>
<text x="2930" y="80" fill="#333" font-family="Arial, Helvetica, sans-serif" font-size="26" font-weight="700" text-anchor="start">3. VALIDACIÓN DE ROL</text>
<rect x="2930" y="110" width="40" height="740" rx="8" fill="#EEEEEE" stroke="#DDD" stroke-width="1"/>
<rect x="2938" y="140" width="24" height="8" rx="4" fill="#DADADA" stroke="#CFCFCF" stroke-width="1"/>
<rect x="2938" y="250" width="24" height="8" rx="4" fill="#DADADA" stroke="#CFCFCF" stroke-width="1"/>
<rect x="2938" y="360" width="24" height="8" rx="4" fill="#DADADA" stroke="#CFCFCF" stroke-width="1"/>
<rect x="2938" y="470" width="24" height="8" rx="4" fill="#DADADA" stroke="#CFCFCF" stroke-width="1"/>
<rect x="2938" y="580" width="24" height="8" rx="4" fill="#DADADA" stroke="#CFCFCF" stroke-width="1"/>
<rect x="2938" y="690" width="24" height="8" rx="4" fill="#DADADA" stroke="#CFCFCF" stroke-width="1"/>
<rect x="2990" y="110" width="1240" height="720" rx="8" fill="#FFFFFF" stroke="#DDD" stroke-width="1"/>
<text x="3010" y="150" fill="#333" font-family="Arial, Helvetica, sans-serif" font-size="22" font-weight="700" text-anchor="start">VALIDACIÓN DE ROL</text>
<rect x="3010" y="190" width="420" height="48" rx="10" fill="#EFEFEF" stroke="#CFCFCF" stroke-width="1"/>
<text x="3030" y="220" fill="#333" font-family="Arial, Helvetica, sans-serif" font-size="14" font-weight="600" text-anchor="start">TEXTO: VALIDANDO CREDENCIALES</text>
<rect x="3010" y="260" width="420" height="48" rx="10" fill="#EFEFEF" stroke="#CFCFCF" stroke-width="1"/>
<text x="3030" y="290" fill="#333" font-family="Arial, Helvetica, sans-serif" font-size="14" font-weight="600" text-anchor="start">ANIMACIÓN: SPINNER / BARRA DE CARGA</text>
<rect x="3010" y="330" width="420" height="48" rx="10" fill="#EFEFEF" stroke="#CFCFCF" stroke-width="1"/>
<text x="3030" y="360" fill="#333" font-family="Arial, Helvetica, sans-serif" font-size="14" font-weight="600" text-anchor="start">MENSAJE: BIENVENIDO (ROL DETECTADO)</text>
<text x="4200" y="860" fill="#777" font-family="Arial, Helvetica, sans-serif" font-size="12" font-weight="600" text-anchor="end">PANTALLA 3/12</text>
<rect x="4350" y="30" width="1380" height="840" rx="8" fill="#FAFAFA" stroke="#999" stroke-width="1"/>
<text x="4370" y="80" fill="#333" font-family="Arial, Helvetica, sans-serif" font-size="26" font-weight="700" text-anchor="start">4. DASHBOARD</text>
<rect x="4370" y="110" width="40" height="740" rx="8" fill="#EEEEEE" stroke="#DDD" stroke-width="1"/>
<rect x="4378" y="140" width="24" height="8" rx="4" fill="#DADADA" stroke="#CFCFCF" stroke-width="1"/>
<rect x="4378" y="250" width="24" height="8" rx="4" fill="#DADADA" stroke="#CFCFCF" stroke-width="1"/>
<rect x="4378" y="360" width="24" height="8" rx="4" fill="#DADADA" stroke="#CFCFCF" stroke-width="1"/>
<rect x="4378" y="470" width="24" height="8" rx="4" fill="#DADADA" stroke="#CFCFCF" stroke-width="1"/>
<rect x="4378" y="580" width="24" height="8" rx="4" fill="#DADADA" stroke="#CFCFCF" stroke-width="1"/>
<rect x="4378" y="690" width="24" height="8" rx="4" fill="#DADADA" stroke="#CFCFCF" stroke-width="1"/>
<rect x="4430" y="110" width="1240" height="720" rx="8" fill="#FFFFFF" stroke="#DDD" stroke-width="1"/>
<text x="4450" y="150" fill="#333" font-family="Arial, Helvetica, sans-serif" font-size="22" font-weight="700" text-anchor="start">DASHBOARD</text>
<rect x="4450" y="190" width="420" height="48" rx="10" fill="#EFEFEF" stroke="#CFCFCF" stroke-width="1"/>
<text x="4470" y="220" fill="#333" font-family="Arial, Helvetica, sans-serif" font-size="14" font-weight="600" text-anchor="start">TARJETA: INVENTARIO TOTAL</text>
<rect x="4450" y="260" width="420" height="48" rx="10" fill="#EFEFEF" stroke="#CFCFCF" stroke-width="1"/>
<text x="4470" y="290" fill="#333" font-family="Arial, Helvetica, sans-serif" font-size="14" font-weight="600" text-anchor="start">TARJETA: ENTRADAS / SALIDAS</text>
<rect x="4450" y="330" width="1180" height="180" rx="8" fill="#F8F8F8" stroke="#D9D9D9" stroke-width="1"/>
<polyline points="4480.0,480 4620.0,455 4760.0,430 4900.0,480 5040.0,455 5180.0,430 5320.0,480 5460.0,455" fill="none" stroke="#BDBDBD" stroke-width="2"/>
<text x="4470" y="350" fill="#333" font-family="Arial, Helvetica, sans-serif" font-size="14" font-weight="600" text-anchor="start">GRÁFICO: MOVIMIENTOS</text>
<rect x="4450" y="540" width="320" height="48" rx="10" fill="#EFEFEF" stroke="#CFCFCF" stroke-width="1"/>
<text x="4610" y="572" fill="#333" font-family="Arial, Helvetica, sans-serif" font-size="14" font-weight="600" text-anchor="middle">BOTÓN: VER INVENTARIO</text>
<text x="5640" y="860" fill="#777" font-family="Arial, Helvetica, sans-serif" font-size="12" font-weight="600" text-anchor="end">PANTALLA 4/12</text>
<rect x="5790" y="30" width="1380" height="840" rx="8" fill="#FAFAFA" stroke="#999" stroke-width="1"/>
<text x="5810" y="80" fill="#333" font-family="Arial, Helvetica, sans-serif" font-size="26" font-weight="700" text-anchor="start">5. REGISTRAR ENTRADA</text>
<rect x="5810" y="110" width="40" height="740" rx="8" fill="#EEEEEE" stroke="#DDD" stroke-width="1"/>
<rect x="5818" y="140" width="24" height="8" rx="4" fill="#DADADA" stroke="#CFCFCF" stroke-width="1"/>
<rect x="5818" y="250" width="24" height="8" rx="4" fill="#DADADA" stroke="#CFCFCF" stroke-width="1"/>
<rect x="5818" y="360" width="24" height="8" rx="4" fill="#DADADA" stroke="#CFCFCF" stroke-width="1"/>
<rect x="5818" y="470" width="24" height="8" rx="4" fill="#DADADA" stroke="#CFCFCF" stroke-width="1"/>
<rect x="5818" y="580" width="24" height="8" rx="4" fill="#DADADA" stroke="#CFCFCF" stroke-width="1"/>
<rect x="5818" y="690" width="24" height="8" rx="4" fill="#DADADA" stroke="#CFCFCF" stroke-width="1"/>
<rect x="5870" y="110" width="1240" height="720" rx="8" fill="#FFFFFF" stroke="#DDD" stroke-width="1"/>
<text x="5890" y="150" fill="#333" font-family="Arial, Helvetica, sans-serif" font-size="22" font-weight="700" text-anchor="start">REGISTRAR ENTRADA</text>
<text x="5890" y="182" fill="#666" font-family="Arial, Helvetica, sans-serif" font-size="12" font-weight="600" text-anchor="start">CAMPO: SABOR</text>
<rect x="5890" y="190" width="520" height="40" rx="8" fill="#FFFFFF" stroke="#CCCCCC" stroke-width="1"/>
<text x="5890" y="248" fill="#666" font-family="Arial, Helvetica, sans-serif" font-size="12" font-weight="600" text-anchor="start">CAMPO: CANTIDAD (CAJAS)</text>
<rect x="5890" y="256" width="520" height="40" rx="8" fill="#FFFFFF" stroke="#CCCCCC" stroke-width="1"/>
<text x="5890" y="314" fill="#666" font-family="Arial, Helvetica, sans-serif" font-size="12" font-weight="600" text-anchor="start">CAMPO: OBSERVACIONES</text>
<rect x="5890" y="322" width="520" height="40" rx="8" fill="#FFFFFF" stroke="#CCCCCC" stroke-width="1"/>
<rect x="5890" y="388" width="320" height="48" rx="10" fill="#EFEFEF" stroke="#CFCFCF" stroke-width="1"/>
<text x="6050" y="420" fill="#333" font-family="Arial, Helvetica, sans-serif" font-size="14" font-weight="600" text-anchor="middle">BOTÓN: GUARDAR</text>
<text x="7080" y="860" fill="#777" font-family="Arial, Helvetica, sans-serif" font-size="12" font-weight="600" text-anchor="end">PANTALLA 5/12</text>
<rect x="7230" y="30" width="1380" height="840" rx="8" fill="#FAFAFA" stroke="#999" stroke-width="1"/>
<text x="7250" y="80" fill="#333" font-family="Arial, Helvetica, sans-serif" font-size="26" font-weight="700" text-anchor="start">6. REGISTRAR SALIDA</text>
<rect x="7250" y="110" width="40" height="740" rx="8" fill="#EEEEEE" stroke="#DDD" stroke-width="1"/>
<rect x="7258" y="140" width="24" height="8" rx="4" fill="#DADADA" stroke="#CFCFCF" stroke-width="1"/>
<rect x="7258" y="250" width="24" height="8" rx="4" fill="#DADADA" stroke="#CFCFCF" stroke-width="1"/>
<rect x="7258" y="360" width="24" height="8" rx="4" fill="#DADADA" stroke="#CFCFCF" stroke-width="1"/>
<rect x="7258" y="470" width="24" height="8" rx="4" fill="#DADADA" stroke="#CFCFCF" stroke-width="1"/>
<rect x="7258" y="580" width="24" height="8" rx="4" fill="#DADADA" stroke="#CFCFCF" stroke-width="1"/>
<rect x="7258" y="690" width="24" height="8" rx="4" fill="#DADADA" stroke="#CFCFCF" stroke-width="1"/>
<rect x="7310" y="110" width="1240" height="720" rx="8" fill="#FFFFFF" stroke="#DDD" stroke-width="1"/>
<text x="7330" y="150" fill="#333" font-family="Arial, Helvetica, sans-serif" font-size="22" font-weight="700" text-anchor="start">REGISTRAR SALIDA</text>
<text x="7330" y="182" fill="#666" font-family="Arial, Helvetica, sans-serif" font-size="12" font-weight="600" text-anchor="start">CAMPO: SABOR</text>
<rect x="7330" y="190" width="520" height="40" rx="8" fill="#FFFFFF" stroke="#CCCCCC" stroke-width="1"/>
<text x="7330" y="248" fill="#666" font-family="Arial, Helvetica, sans-serif" font-size="12" font-weight="600" text-anchor="start">CAMPO: CANTIDAD (CAJAS)</text>
<rect x="7330" y="256" width="520" height="40" rx="8" fill="#FFFFFF" stroke="#CCCCCC" stroke-width="1"/>
<text x="7330" y="314" fill="#666" font-family="Arial, Helvetica, sans-serif" font-size="12" font-weight="600" text-anchor="start">CAMPO: OBSERVACIONES</text>
<rect x="7330" y="322" width="520" height="40" rx="8" fill="#FFFFFF" stroke="#CCCCCC" stroke-width="1"/>
<rect x="7330" y="388" width="320" height="48" rx="10" fill="#EFEFEF" stroke="#CFCFCF" stroke-width="1"/>
<text x="7490" y="420" fill="#333" font-family="Arial, Helvetica, sans-serif" font-size="14" font-weight="600" text-anchor="middle">BOTÓN: GUARDAR</text>
<text x="8520" y="860" fill="#777" font-family="Arial, Helvetica, sans-serif" font-size="12" font-weight="600" text-anchor="end">PANTALLA 6/12</text>
<rect x="8670" y="30" width="1380" height="840" rx="8" fill="#FAFAFA" stroke="#999" stroke-width="1"/>
<text x="8690" y="80" fill="#333" font-family="Arial, Helvetica, sans-serif" font-size="26" font-weight="700" text-anchor="start">7. HISTORIAL DE MOVIMIENTOS</text>
<rect x="8690" y="110" width="40" height="740" rx="8" fill="#EEEEEE" stroke="#DDD" stroke-width="1"/>
<rect x="8698" y="140" width="24" height="8" rx="4" fill="#DADADA" stroke="#CFCFCF" stroke-width="1"/>
<rect x="8698" y="250" width="24" height="8" rx="4" fill="#DADADA" stroke="#CFCFCF" stroke-width="1"/>
<rect x="8698" y="360" width="24" height="8" rx="4" fill="#DADADA" stroke="#CFCFCF" stroke-width="1"/>
<rect x="8698" y="470" width="24" height="8" rx="4" fill="#DADADA" stroke="#CFCFCF" stroke-width="1"/>
<rect x="8698" y="580" width="24" height="8" rx="4" fill="#DADADA" stroke="#CFCFCF" stroke-width="1"/>
<rect x="8698" y="690" width="24" height="8" rx="4" fill="#DADADA" stroke="#CFCFCF" stroke-width="1"/>
<rect x="8750" y="110" width="1240" height="720" rx="8" fill="#FFFFFF" stroke="#DDD" stroke-width="1"/>
<text x="8770" y="150" fill="#333" font-family="Arial, Helvetica, sans-serif" font-size="22" font-weight="700" text-anchor="start">HISTORIAL DE MOVIMIENTOS</text>
<text x="8770" y="182" fill="#666" font-family="Arial, Helvetica, sans-serif" font-size="12" font-weight="600" text-anchor="start">FILTRO: FECHA / SABOR</text>
<rect x="8770" y="190" width="520" height="40" rx="8" fill="#FFFFFF" stroke="#CCCCCC" stroke-width="1"/>
<rect x="8770" y="256" width="1180" height="280" rx="8" fill="#F8F8F8" stroke="#D9D9D9" stroke-width="1"/>
<rect x="8770" y="256" width="1180" height="40" rx="0" fill="#EDEDED" stroke="#D9D9D9" stroke-width="1"/>
<line x1="8770" y1="336" x2="9950" y2="336" stroke="#BDBDBD" stroke-width="1" stroke-dasharray="4,4"/>
<text x="8790" y="282" fill="#333" font-family="Arial, Helvetica, sans-serif" font-size="14" font-weight="600" text-anchor="start">TABLA: MOVIMIENTOS (ENCABEZADOS)</text>
<rect x="8770" y="556" width="420" height="48" rx="10" fill="#EFEFEF" stroke="#CFCFCF" stroke-width="1"/>
<text x="8790" y="586" fill="#333" font-family="Arial, Helvetica, sans-serif" font-size="14" font-weight="600" text-anchor="start">PAGINACIÓN</text>
<text x="9960" y="860" fill="#777" font-family="Arial, Helvetica, sans-serif" font-size="12" font-weight="600" text-anchor="end">PANTALLA 7/12</text>
<rect x="10110" y="30" width="1380" height="840" rx="8" fill="#FAFAFA" stroke="#999" stroke-width="1"/>
<text x="10130" y="80" fill="#333" font-family="Arial, Helvetica, sans-serif" font-size="26" font-weight="700" text-anchor="start">8. INVENTARIO ACTUAL</text>
<rect x="10130" y="110" width="40" height="740" rx="8" fill="#EEEEEE" stroke="#DDD" stroke-width="1"/>
<rect x="10138" y="140" width="24" height="8" rx="4" fill="#DADADA" stroke="#CFCFCF" stroke-width="1"/>
<rect x="10138" y="250" width="24" height="8" rx="4" fill="#DADADA" stroke="#CFCFCF" stroke-width="1"/>
<rect x="10138" y="360" width="24" height="8" rx="4" fill="#DADADA" stroke="#CFCFCF" stroke-width="1"/>
<rect x="10138" y="470" width="24" height="8" rx="4" fill="#DADADA" stroke="#CFCFCF" stroke-width="1"/>
<rect x="10138" y="580" width="24" height="8" rx="4" fill="#DADADA" stroke="#CFCFCF" stroke-width="1"/>
<rect x="10138" y="690" width="24" height="8" rx="4" fill="#DADADA" stroke="#CFCFCF" stroke-width="1"/>
<rect x="10190" y="110" width="1240" height="720" rx="8" fill="#FFFFFF" stroke="#DDD" stroke-width="1"/>
<text x="10210" y="150" fill="#333" font-family="Arial, Helvetica, sans-serif" font-size="22" font-weight="700" text-anchor="start">INVENTARIO ACTUAL</text>
<text x="10210" y="182" fill="#666" font-family="Arial, Helvetica, sans-serif" font-size="12" font-weight="600" text-anchor="start">BUSCADOR</text>
<rect x="10210" y="190" width="520" height="40" rx="8" fill="#FFFFFF" stroke="#CCCCCC" stroke-width="1"/>
<rect x="10210" y="256" width="1180" height="280" rx="8" fill="#F8F8F8" stroke="#D9D9D9" stroke-width="1"/>
<rect x="10210" y="256" width="1180" height="40" rx="0" fill="#EDEDED" stroke="#D9D9D9" stroke-width="1"/>
<line x1="10210" y1="336" x2="11390" y2="336" stroke="#BDBDBD" stroke-width="1" stroke-dasharray="4,4"/>
<text x="10230" y="282" fill="#333" font-family="Arial, Helvetica, sans-serif" font-size="14" font-weight="600" text-anchor="start">TABLA: SABOR / CAJAS / ÚLTIMA ACTUALIZACIÓN (ENCABEZADOS)</text>
<text x="11400" y="860" fill="#777" font-family="Arial, Helvetica, sans-serif" font-size="12" font-weight="600" text-anchor="end">PANTALLA 8/12</text>
<rect x="11550" y="30" width="1380" height="840" rx="8" fill="#FAFAFA" stroke="#999" stroke-width="1"/>
<text x="11570" y="80" fill="#333" font-family="Arial, Helvetica, sans-serif" font-size="26" font-weight="700" text-anchor="start">9. INVENTARIO HISTÓRICO</text>
<rect x="11570" y="110" width="40" height="740" rx="8" fill="#EEEEEE" stroke="#DDD" stroke-width="1"/>
<rect x="11578" y="140" width="24" height="8" rx="4" fill="#DADADA" stroke="#CFCFCF" stroke-width="1"/>
<rect x="11578" y="250" width="24" height="8" rx="4" fill="#DADADA" stroke="#CFCFCF" stroke-width="1"/>
<rect x="11578" y="360" width="24" height="8" rx="4" fill="#DADADA" stroke="#CFCFCF" stroke-width="1"/>
<rect x="11578" y="470" width="24" height="8" rx="4" fill="#DADADA" stroke="#CFCFCF" stroke-width="1"/>
<rect x="11578" y="580" width="24" height="8" rx="4" fill="#DADADA" stroke="#CFCFCF" stroke-width="1"/>
<rect x="11578" y="690" width="24" height="8" rx="4" fill="#DADADA" stroke="#CFCFCF" stroke-width="1"/>
<rect x="11630" y="110" width="1240" height="720" rx="8" fill="#FFFFFF" stroke="#DDD" stroke-width="1"/>
<text x="11650" y="150" fill="#333" font-family="Arial, Helvetica, sans-serif" font-size="22" font-weight="700" text-anchor="start">INVENTARIO HISTÓRICO</text>
<text x="11650" y="182" fill="#666" font-family="Arial, Helvetica, sans-serif" font-size="12" font-weight="600" text-anchor="start">FILTRO: RANGO DE FECHA</text>
<rect x="11650" y="190" width="520" height="40" rx="8" fill="#FFFFFF" stroke="#CCCCCC" stroke-width="1"/>
<rect x="11650" y="256" width="1180" height="180" rx="8" fill="#F8F8F8" stroke="#D9D9D9" stroke-width="1"/>
<polyline points="11680.0,406 11820.0,381 11960.0,356 12100.0,406 12240.0,381 12380.0,356 12520.0,406 12660.0,381" fill="none" stroke="#BDBDBD" stroke-width="2"/>
<text x="11670" y="276" fill="#333" font-family="Arial, Helvetica, sans-serif" font-size="14" font-weight="600" text-anchor="start">GRÁFICO: EXISTENCIAS</text>
<rect x="11650" y="466" width="1180" height="280" rx="8" fill="#F8F8F8" stroke="#D9D9D9" stroke-width="1"/>
<rect x="11650" y="466" width="1180" height="40" rx="0" fill="#EDEDED" stroke="#D9D9D9" stroke-width="1"/>
<line x1="11650" y1="546" x2="12830" y2="546" stroke="#BDBDBD" stroke-width="1" stroke-dasharray="4,4"/>
<text x="11670" y="492" fill="#333" font-family="Arial, Helvetica, sans-serif" font-size="14" font-weight="600" text-anchor="start">TABLA: REGISTROS (ENCABEZADOS)</text>
<text x="12840" y="860" fill="#777" font-family="Arial, Helvetica, sans-serif" font-size="12" font-weight="600" text-anchor="end">PANTALLA 9/12</text>
<rect x="12990" y="30" width="1380" height="840" rx="8" fill="#FAFAFA" stroke="#999" stroke-width="1"/>
<text x="13010" y="80" fill="#333" font-family="Arial, Helvetica, sans-serif" font-size="26" font-weight="700" text-anchor="start">10. REPORTES / SAP</text>
<rect x="13010" y="110" width="40" height="740" rx="8" fill="#EEEEEE" stroke="#DDD" stroke-width="1"/>
<rect x="13018" y="140" width="24" height="8" rx="4" fill="#DADADA" stroke="#CFCFCF" stroke-width="1"/>
<rect x="13018" y="250" width="24" height="8" rx="4" fill="#DADADA" stroke="#CFCFCF" stroke-width="1"/>
<rect x="13018" y="360" width="24" height="8" rx="4" fill="#DADADA" stroke="#CFCFCF" stroke-width="1"/>
<rect x="13018" y="470" width="24" height="8" rx="4" fill="#DADADA" stroke="#CFCFCF" stroke-width="1"/>
<rect x="13018" y="580" width="24" height="8" rx="4" fill="#DADADA" stroke="#CFCFCF" stroke-width="1"/>
<rect x="13018" y="690" width="24" height="8" rx="4" fill="#DADADA" stroke="#CFCFCF" stroke-width="1"/>
<rect x="13070" y="110" width="1240" height="720" rx="8" fill="#FFFFFF" stroke="#DDD" stroke-width="1"/>
<text x="13090" y="150" fill="#333" font-family="Arial, Helvetica, sans-serif" font-size="22" font-weight="700" text-anchor="start">REPORTES / SAP</text>
<rect x="13090" y="190" width="320" height="48" rx="10" fill="#EFEFEF" stroke="#CFCFCF" stroke-width="1"/>
<text x="13250" y="222" fill="#333" font-family="Arial, Helvetica, sans-serif" font-size="14" font-weight="600" text-anchor="middle">BOTÓN: EXPORTAR</text>
<rect x="13090" y="260" width="320" height="48" rx="10" fill="#EFEFEF" stroke="#CFCFCF" stroke-width="1"/>
<text x="13250" y="292" fill="#333" font-family="Arial, Helvetica, sans-serif" font-size="14" font-weight="600" text-anchor="middle">BOTÓN: SINCRONIZAR</text>
<rect x="13090" y="330" width="420" height="48" rx="10" fill="#EFEFEF" stroke="#CFCFCF" stroke-width="1"/>
<text x="13110" y="360" fill="#333" font-family="Arial, Helvetica, sans-serif" font-size="14" font-weight="600" text-anchor="start">LOG: ESTADO DE SINCRONIZACIÓN</text>
<text x="14280" y="860" fill="#777" font-family="Arial, Helvetica, sans-serif" font-size="12" font-weight="600" text-anchor="end">PANTALLA 10/12</text>
<rect x="14430" y="30" width="1380" height="840" rx="8" fill="#FAFAFA" stroke="#999" stroke-width="1"/>
<text x="14450" y="80" fill="#333" font-family="Arial, Helvetica, sans-serif" font-size="26" font-weight="700" text-anchor="start">11. ADMINISTRACIÓN DE USUARIOS</text>
<rect x="14450" y="110" width="40" height="740" rx="8" fill="#EEEEEE" stroke="#DDD" stroke-width="1"/>
<rect x="14458" y="140" width="24" height="8" rx="4" fill="#DADADA" stroke="#CFCFCF" stroke-width="1"/>
<rect x="14458" y="250" width="24" height="8" rx="4" fill="#DADADA" stroke="#CFCFCF" stroke-width="1"/>
<rect x="14458" y="360" width="24" height="8" rx="4" fill="#DADADA" stroke="#CFCFCF" stroke-width="1"/>
<rect x="14458" y="470" width="24" height="8" rx="4" fill="#DADADA" stroke="#CFCFCF" stroke-width="1"/>
<rect x="14458" y="580" width="24" height="8" rx="4" fill="#DADADA" stroke="#CFCFCF" stroke-width="1"/>
<rect x="14458" y="690" width="24" height="8" rx="4" fill="#DADADA" stroke="#CFCFCF" stroke-width="1"/>
<rect x="14510" y="110" width="1240" height="720" rx="8" fill="#FFFFFF" stroke="#DDD" stroke-width="1"/>
<text x="14530" y="150" fill="#333" font-family="Arial, Helvetica, sans-serif" font-size="22" font-weight="700" text-anchor="start">ADMINISTRACIÓN DE USUARIOS</text>
<rect x="14530" y="190" width="420" height="48" rx="10" fill="#EFEFEF" stroke="#CFCFCF" stroke-width="1"/>
<text x="14550" y="220" fill="#333" font-family="Arial, Helvetica, sans-serif" font-size="14" font-weight="600" text-anchor="start">LISTA: USUARIOS</text>
<rect x="14530" y="260" width="320" height="48" rx="10" fill="#EFEFEF" stroke="#CFCFCF" stroke-width="1"/>
<text x="14690" y="292" fill="#333" font-family="Arial, Helvetica, sans-serif" font-size="14" font-weight="600" text-anchor="middle">BOTÓN: NUEVO</text>
<rect x="14530" y="330" width="320" height="48" rx="10" fill="#EFEFEF" stroke="#CFCFCF" stroke-width="1"/>
<text x="14690" y="362" fill="#333" font-family="Arial, Helvetica, sans-serif" font-size="14" font-weight="600" text-anchor="middle">BOTÓN: EDITAR</text>
<rect x="14530" y="400" width="1180" height="280" rx="8" fill="#F8F8F8" stroke="#D9D9D9" stroke-width="1"/>
<rect x="14530" y="400" width="1180" height="40" rx="0" fill="#EDEDED" stroke="#D9D9D9" stroke-width="1"/>
<line x1="14530" y1="480" x2="15710" y2="480" stroke="#BDBDBD" stroke-width="1" stroke-dasharray="4,4"/>
<text x="14550" y="426" fill="#333" font-family="Arial, Helvetica, sans-serif" font-size="14" font-weight="600" text-anchor="start">TABLA: ROLES / ESTADO (ENCABEZADOS)</text>
<text x="15720" y="860" fill="#777" font-family="Arial, Helvetica, sans-serif" font-size="12" font-weight="600" text-anchor="end">PANTALLA 11/12</text>
<rect x="15870" y="30" width="1380" height="840" rx="8" fill="#FAFAFA" stroke="#999" stroke-width="1"/>
<text x="15890" y="80" fill="#333" font-family="Arial, Helvetica, sans-serif" font-size="26" font-weight="700" text-anchor="start">12. CENTRO DE AYUDA</text>
<rect x="15890" y="110" width="40" height="740" rx="8" fill="#EEEEEE" stroke="#DDD" stroke-width="1"/>
<rect x="15898" y="140" width="24" height="8" rx="4" fill="#DADADA" stroke="#CFCFCF" stroke-width="1"/>
<rect x="15898" y="250" width="24" height="8" rx="4" fill="#DADADA" stroke="#CFCFCF" stroke-width="1"/>
<rect x="15898" y="360" width="24" height="8" rx="4" fill="#DADADA" stroke="#CFCFCF" stroke-width="1"/>
<rect x="15898" y="470" width="24" height="8" rx="4" fill="#DADADA" stroke="#CFCFCF" stroke-width="1"/>
<rect x="15898" y="580" width="24" height="8" rx="4" fill="#DADADA" stroke="#CFCFCF" stroke-width="1"/>
<rect x="15898" y="690" width="24" height="8" rx="4" fill="#DADADA" stroke="#CFCFCF" stroke-width="1"/>
<rect x="15950" y="110" width="1240" height="720" rx="8" fill="#FFFFFF" stroke="#DDD" stroke-width="1"/>
<text x="15970" y="150" fill="#333" font-family="Arial, Helvetica, sans-serif" font-size="22" font-weight="700" text-anchor="start">CENTRO DE AYUDA</text>
<rect x="15970" y="190" width="420" height="48" rx="10" fill="#EFEFEF" stroke="#CFCFCF" stroke-width="1"/>
<text x="15990" y="220" fill="#333" font-family="Arial, Helvetica, sans-serif" font-size="14" font-weight="600" text-anchor="start">PREGUNTAS FRECUENTES</text>
<rect x="15970" y="260" width="420" height="48" rx="10" fill="#EFEFEF" stroke="#CFCFCF" stroke-width="1"/>
<text x="15990" y="290" fill="#333" font-family="Arial, Helvetica, sans-serif" font-size="14" font-weight="600" text-anchor="start">TUTORIAL VISUAL</text>
<rect x="15970" y="330" width="420" height="48" rx="10" fill="#EFEFEF" stroke="#CFCFCF" stroke-width="1"/>
<text x="15990" y="360" fill="#333" font-family="Arial, Helvetica, sans-serif" font-size="14" font-weight="600" text-anchor="start">CONTACTO TÉCNICO</text>
<text x="17160" y="860" fill="#777" font-family="Arial, Helvetica, sans-serif" font-size="12" font-weight="600" text-anchor="end">PANTALLA 12/12</text>
<line x1="1440" y1="0" x2="1440" y2="900" stroke="#E0E0E0" stroke-width="1" stroke-dasharray="6,6"/>
<line x1="1400" y1="450.0" x2="1430" y2="450.0" stroke="#A0A0A0" stroke-width="2"/><polygon points="1430,450.0 1420,444.0 1420,456.0" fill="#A0A0A0"/>
<line x1="2880" y1="0" x2="2880" y2="900" stroke="#E0E0E0" stroke-width="1" stroke-dasharray="6,6"/>
<line x1="2840" y1="450.0" x2="2870" y2="450.0" stroke="#A0A0A0" stroke-width="2"/><polygon points="2870,450.0 2860,444.0 2860,456.0" fill="#A0A0A0"/>
<line x1="4320" y1="0" x2="4320" y2="900" stroke="#E0E0E0" stroke-width="1" stroke-dasharray="6,6"/>
<line x1="4280" y1="450.0" x2="4310" y2="450.0" stroke="#A0A0A0" stroke-width="2"/><polygon points="4310,450.0 4300,444.0 4300,456.0" fill="#A0A0A0"/>
<line x1="5760" y1="0" x2="5760" y2="900" stroke="#E0E0E0" stroke-width="1" stroke-dasharray="6,6"/>
<line x1="5720" y1="450.0" x2="5750" y2="450.0" stroke="#A0A0A0" stroke-width="2"/><polygon points="5750,450.0 5740,444.0 5740,456.0" fill="#A0A0A0"/>
<line x1="7200" y1="0" x2="7200" y2="900" stroke="#E0E0E0" stroke-width="1" stroke-dasharray="6,6"/>
<line x1="7160" y1="450.0" x2="7190" y2="450.0" stroke="#A0A0A0" stroke-width="2"/><polygon points="7190,450.0 7180,444.0 7180,456.0" fill="#A0A0A0"/>
<line x1="8640" y1="0" x2="8640" y2="900" stroke="#E0E0E0" stroke-width="1" stroke-dasharray="6,6"/>
<line x1="8600" y1="450.0" x2="8630" y2="450.0" stroke="#A0A0A0" stroke-width="2"/><polygon points="8630,450.0 8620,444.0 8620,456.0" fill="#A0A0A0"/>
<line x1="10080" y1="0" x2="10080" y2="900" stroke="#E0E0E0" stroke-width="1" stroke-dasharray="6,6"/>
<line x1="10040" y1="450.0" x2="10070" y2="450.0" stroke="#A0A0A0" stroke-width="2"/><polygon points="10070,450.0 10060,444.0 10060,456.0" fill="#A0A0A0"/>
<line x1="11520" y1="0" x2="11520" y2="900" stroke="#E0E0E0" stroke-width="1" stroke-dasharray="6,6"/>
<line x1="11480" y1="450.0" x2="11510" y2="450.0" stroke="#A0A0A0" stroke-width="2"/><polygon points="11510,450.0 11500,444.0 11500,456.0" fill="#A0A0A0"/>
<line x1="12960" y1="0" x2="12960" y2="900" stroke="#E0E0E0" stroke-width="1" stroke-dasharray="6,6"/>
<line x1="12920" y1="450.0" x2="12950" y2="450.0" stroke="#A0A0A0" stroke-width="2"/><polygon points="12950,450.0 12940,444.0 12940,456.0" fill="#A0A0A0"/>
<line x1="14400" y1="0" x2="14400" y2="900" stroke="#E0E0E0" stroke-width="1" stroke-dasharray="6,6"/>
<line x1="14360" y1="450.0" x2="14390" y2="450.0" stroke="#A0A0A0" stroke-width="2"/><polygon points="14390,450.0 14380,444.0 14380,456.0" fill="#A0A0A0"/>
<line x1="15840" y1="0" x2="15840" y2="900" stroke="#E0E0E0" stroke-width="1" stroke-dasharray="6,6"/>
<line x1="15800" y1="450.0" x2="15830" y2="450.0" stroke="#A0A0A0" stroke-width="2"/><polygon points="15830,450.0 15820,444.0 15820,456.0" fill="#A0A0A0"/>
</svg>